<svg height="589pt" viewBox="0 0 480 589" width="480pt" xmlns="http://www.w3.org/2000/svg"><g fill="#101010"><path d="m151.08 60.13c17.42-17.06 41.61-26.71 65.92-27.17 20 .07 40 .02 60 .03 15.17-.49 30.53 2.25 44.37 8.55 30.46 13.21 53.01 43.08 57.23 76.03.81 6.64 1.51 13.34.97 20.03-.29 3.64-.22 7.42-1.79 10.81-4.47-3.55-9.41-6.64-14.89-8.37-7.75-2.5-15.53-5.06-23.6-6.34-17.97-3.35-36.2-5.13-54.43-6.34-9.99-.73-20.02-.14-30-.99-6.61-.59-13.22.06-19.82.41-26.07.43-52.2 2.37-77.8 7.51-7.1 1.44-14.02 3.63-20.83 6.08-5.12 1.78-9.58 4.91-14.25 7.57l-.66.41c-1.28-9.98-1.8-20.15-.11-30.11 2.74-22.04 13.47-42.95 29.69-58.11z"/><path d="m138.97 148.82c28.61-6.2 57.85-8.74 87.03-10.16 15.67.03 31.34-.04 47 .03 26.05 1.38 52.13 3.53 77.78 8.45 10.18 2.21 20.5 4.04 30.29 7.7 3.11.89 6.28 1.59 9.3 2.78 9.42 3.53 18.95 7.63 26.42 14.57 2.84 2.66 5.68 5.82 6.23 9.83.32 2.85.42 5.84-.51 8.59-1.7 3.94-4.63 7.27-8.05 9.81-8.6 6.52-18.67 10.8-28.86 14.17-2.68.96-5.39 1.85-8.22 2.24-3.28-6.49-8.56-11.84-14.93-15.33-16.99-9.74-36.38-14.14-55.5-17.46-8.97-1.22-17.93-2.64-26.98-3.02-4.33-.3-8.62-1.15-12.97-1.06-8.33.09-16.66-.15-24.99-.01-7.02.16-14.09-.36-21.06.75-22.39 1.56-44.86 4.83-66.19 12.03-10.16 3.72-20.57 7.94-28.51 15.53-2.56 2.28-4.02 5.42-5.9 8.22-1.1.56-2.32-.18-3.42-.35-9.76-2.96-19.41-6.53-28.15-11.85-4.85-2.99-9.61-6.54-12.53-11.54-2.41-3.73-2.57-8.62-1.18-12.74 3.33-7.35 10.37-12.05 17.18-15.84 8.74-4.45 17.95-8.08 27.5-10.37 6.4-1.68 12.67-3.91 19.22-4.97z"/><path d="m172.79 220.78c14.5-8.92 33.67-9.37 48.6-1.18 18.17 9.28 29.25 30.68 26.17 50.88-1.35 7.63-3.88 15.23-8.55 21.5-7.53 11.11-19.83 18.87-33.1 20.84-3.21.47-6.42 1.38-9.68.96-6.53-.96-13.19-1.95-19.15-4.96-5.73-2.9-11.19-6.54-15.58-11.28-5.58-6.31-9.83-13.87-11.87-22.07-1.59-6.63-1.62-13.54-.62-20.26-3.85 1.93-8.87 3.19-12.67.49-4.73-3.06-5.79-10.29-2.26-14.63 1.97-2.31 4.94-3.65 7.91-4.03 4.47.12 7.54 3.6 9.96 6.94 4.85-9.3 11.5-18.06 20.84-23.2m15.58-3.35c-8.82 1.77-16.91 6.37-23.47 12.46-11.19 10.97-16.47 27.81-13.1 43.16 3.09 16.7 16.29 30.93 32.52 35.72 7.02 1.98 14.49 3.05 21.69 1.33 14.29-2.11 26.98-11.6 33.85-24.19 7.27-13.66 7.41-31.03-.1-44.62-5.06-9.61-13.72-17.19-23.72-21.32-8.68-3.67-18.47-4.23-27.67-2.54m-48.02 21.87c-3.59.62-6.77 3.92-6.42 7.7-.58 4.07 2.7 7.7 6.5 8.58 4.59 1.05 9.79-2.77 9.77-7.58.75-5.28-4.74-10.01-9.85-8.7z"/><path d="m116.44 249.4c1.65-.64 3.51-.61 5.22-.21 2.1 1.35 3.63 3.91 3.04 6.47-.7 3.43-5.13 6.38-8.32 4.06-3.99-1.97-4.03-8.47.06-10.32z"/><path d="m105.36 268.27c4.25-1.48 9.23 3.86 6.94 7.95-1.44 4.56-9.25 4.7-10.49-.05-1.57-3.1.38-6.85 3.55-7.9z"/><path d="m104.44 291.43c2.97-1.45 6.43.48 8.07 3.05.92 3.09-.65 7.32-4.11 7.93-3.13.92-6.53-1.52-7.11-4.63-.34-2.48 1.01-5.08 3.15-6.35z"/><path d="m104.4 314.33c3.02-1.23 6.92.14 8.03 3.33 1.62 3.8-2.15 8.3-6.11 7.92-2.41-.47-4.53-2.48-4.96-4.93-.47-2.47.84-5.13 3.04-6.32z"/><path d="m104.35 337.24c2.58-.9 5.85-.39 7.44 2.01 2.12 2.7.8 6.95-2.13 8.49-2.93 2.04-7.27-.06-8.1-3.37-.97-2.67.52-5.64 2.79-7.13z"/><path d="m224.49 352.48c5.44.04 11.15.3 16.08 2.85 2.91 1.37 5.5 3.35 8.51 4.53 2.13-.37 3.74-2.09 5.65-3.04 9.58-5.13 21.04-5.33 31.44-2.96 15.4 4.87 26.98 17.11 41.82 23.11 5.21 2.21 12.32 1.67 15.79-3.27 1.48-5.47-.94-11.84-6.07-14.44-3.5-1.43-6.68.75-9.62 2.34-.2-.2-.6-.59-.8-.78 2.17-5.17 8.37-7.57 13.68-6.71 4.71.71 8.32 4.19 11.27 7.69 4.8 5.67 5.72 13.92 3.5 20.85-2.18 5.61-5.57 11.03-10.73 14.34-7.23 5.24-16.17 7.34-24.89 8.41-3.18.53-6.42.79-9.61.24-6.12-1-12.4-.21-18.45-1.74-13-2.95-26.55-6.27-37.19-14.75-1.84-1.2-3.5-3.14-5.79-3.34-2.43 1.22-4.42 3.12-6.6 4.71-4.37 3.33-9.51 5.44-14.62 7.35-14.6 5.51-30.22 8.78-45.87 8.21-4.95.2-9.7-1.32-14.42-2.6-4.87-1.36-9.63-3.33-13.73-6.32-6.43-4.98-10.56-12.99-10.33-21.18-.57-8.33 4.49-17.25 12.66-19.81 3.14-.63 6.42-.52 9.55.08 2.02.57 4.43 1.48 5.24 3.61-2.22 1.46-4.98-.54-7.46-.13-4.7.08-7.37 5.07-7.58 9.25-.36 3.61.49 8.29 4.4 9.64 4.37 1.29 8.69-.93 12.64-2.59 11.85-5.47 22.62-12.97 34.29-18.78 5.39-2.62 11.21-4.55 17.24-4.77z"/><path d="m104.29 360.13c2.16-.4 5.02-.85 6.61 1.06 2.27 2.03 2.42 5.74.41 8.01-1.53 2.25-4.64 2.05-6.99 1.54-3.97-2.26-3.94-8.28-.03-10.61z"/><path d="m104.26 383.18c1.78-.48 3.69-.44 5.49-.03 2.79 1.62 4.03 5.79 1.94 8.44-1.94 3.27-7.47 3.39-9.37.03-1.98-2.6-1.12-7.08 1.94-8.44z"/><path d="m107.15 405.5c3.48-.05 6.33 3.58 5.37 6.95-.39 2.67-2.75 4.87-5.53 4.6-4.08.39-7.01-4.65-5.19-8.15.77-2.23 3.13-3.33 5.35-3.4z"/><path d="m106.27 428.32c2.74-.29 5.46 1.65 6.27 4.26 1.35 3.48-1.9 7.57-5.54 7.44-3.42.13-6.36-3.34-5.66-6.68.36-2.54 2.49-4.5 4.93-5.02z"/><path d="m105.43 451.41c3.98-1.6 8.19 3.11 7.08 7.03-.5 3.86-5.58 5.83-8.68 3.68-1.68-1.38-2.95-3.58-2.51-5.8.34-2.25 2.08-4.03 4.11-4.91z"/><path d="m105.42 474.42c2.7-.87 5.93.66 6.88 3.36 1.72 3.55-1.41 8.17-5.3 8.13-2.71-.24-5.45-2.22-5.7-5.08-.55-2.83 1.5-5.54 4.12-6.41z"/><path d="m105.37 497.28c1.81-.66 3.77.04 5.3 1.05 3.19 2.52 2.52 8.58-1.47 9.92-3.14 1.73-7.61-.9-7.9-4.42-.47-2.8 1.17-5.94 4.07-6.55z"/><path d="m105.32 520.12c2.31-.55 5.17.11 6.37 2.35 1.81 2.82 1.06 7.75-2.53 8.73-3 1.55-6.81-.54-7.67-3.66-.96-3.01.86-6.43 3.83-7.42z"/><path d="m104.43 543.4c4.28-2.26 9.64 2.49 8.04 6.99-.97 4.56-8.24 5.57-10.34 1.44-1.85-2.8-.6-6.88 2.3-8.43z"/></g><path d="m235.04 126.78c6.6-.35 13.21-1 19.82-.41 9.98.85 20.01.26 30 .99 18.23 1.21 36.46 2.99 54.43 6.34 8.07 1.28 15.85 3.84 23.6 6.34 5.48 1.73 10.42 4.82 14.89 8.37 1.28 2.04 2.16 4.31 3.29 6.43-9.79-3.66-20.11-5.49-30.29-7.7-25.65-4.92-51.73-7.07-77.78-8.45-15.66-.07-31.33 0-47-.03-29.18 1.42-58.42 3.96-87.03 10.16-6.55 1.06-12.82 3.29-19.22 4.97.68-1.99 1.19-4.1 2.41-5.85 4.67-2.66 9.13-5.79 14.25-7.57 6.81-2.45 13.73-4.64 20.83-6.08 25.6-5.14 51.73-7.08 77.8-7.51z" fill="#232323"/></svg>