<?xml version="1.0" encoding="UTF-8" ?>
<!DOCTYPE svg PUBLIC "-//W3C//DTD SVG 1.1//EN" "http://www.w3.org/Graphics/SVG/1.1/DTD/svg11.dtd">
<svg width="175pt" height="139pt" viewBox="0 0 175 139" version="1.1" xmlns="http://www.w3.org/2000/svg">
<g id="#e4e4e4ff">
<path fill="#e4e4e4" opacity="1.00" d=" M 0.00 0.00 L 175.00 0.00 L 175.00 86.99 C 170.67 86.66 166.33 86.32 162.00 85.98 C 161.34 87.09 160.68 88.19 160.03 89.29 C 165.03 89.67 170.01 90.22 175.00 90.68 L 175.00 93.38 C 170.47 93.11 165.96 92.62 161.44 92.20 C 158.20 91.70 155.95 94.54 153.79 96.46 C 160.84 97.41 167.91 98.25 175.00 98.83 L 175.00 139.00 L 0.00 139.00 L 0.00 98.85 C 7.22 98.46 14.41 97.46 21.65 97.41 C 19.81 95.82 18.25 93.70 15.90 92.84 C 10.59 92.82 5.30 93.56 0.00 93.93 L 0.00 91.06 C 4.68 90.66 9.37 90.35 14.06 90.02 C 13.89 88.93 13.71 87.83 13.54 86.74 C 9.03 87.03 4.51 87.29 0.00 87.59 L 0.00 0.00 M 29.17 10.40 C 30.95 17.22 34.35 23.63 39.44 28.56 C 51.87 42.77 65.74 55.60 79.00 69.01 C 72.52 74.87 66.00 80.70 59.02 85.97 C 53.37 82.41 46.09 80.78 39.83 83.74 C 34.79 86.87 30.59 91.98 29.92 98.03 C 29.23 102.16 31.61 107.11 35.95 108.00 C 41.91 109.00 48.78 108.55 53.58 104.50 C 58.12 99.45 60.16 92.70 64.65 87.62 C 70.37 81.22 79.46 80.29 87.26 78.11 C 94.31 79.62 101.79 81.06 107.83 85.23 C 114.05 90.28 116.07 98.66 121.42 104.42 C 127.45 109.54 137.98 110.65 143.81 104.67 C 147.80 96.20 141.43 86.21 133.46 82.81 C 127.49 80.23 121.34 83.38 116.02 86.00 C 91.93 65.45 67.99 44.75 44.55 23.46 C 39.61 18.89 33.98 15.12 29.17 10.40 M 108.22 41.21 C 101.32 47.19 94.20 52.93 88.06 59.71 C 90.58 62.07 93.12 64.42 95.66 66.75 C 106.88 55.60 118.05 44.40 129.23 33.20 C 135.39 26.87 141.79 19.81 143.23 10.75 C 130.97 20.21 119.71 30.86 108.22 41.21 Z" />
<path fill="#e4e4e4" opacity="1.00" d=" M 83.68 71.78 C 84.40 70.11 85.08 68.43 85.78 66.75 C 86.65 66.75 88.38 66.75 89.25 66.75 C 89.95 68.43 90.65 70.11 91.35 71.79 C 88.80 71.94 86.24 71.94 83.68 71.78 Z" />
<path fill="#e4e4e4" opacity="1.00" d=" M 43.34 87.49 C 47.12 85.37 53.82 86.97 53.67 92.11 C 54.79 100.39 44.62 106.61 37.42 103.29 C 34.77 101.51 33.91 97.47 35.81 94.85 C 37.74 91.92 39.96 88.83 43.34 87.49 Z" />
<path fill="#e4e4e4" opacity="1.00" d=" M 123.17 87.48 C 130.62 84.16 138.38 90.65 140.25 97.67 C 140.18 99.78 139.57 102.17 137.62 103.32 C 132.48 105.17 126.31 103.46 123.09 98.99 C 120.76 95.63 120.31 90.68 123.17 87.48 Z" />
</g>
<g id="#2b5973ff">
<path fill="#2b5973" opacity="1.00" d=" M 29.17 10.40 C 33.98 15.12 39.61 18.89 44.55 23.46 C 67.99 44.75 91.93 65.45 116.02 86.00 C 121.34 83.38 127.49 80.23 133.46 82.81 C 141.43 86.21 147.80 96.20 143.81 104.67 C 137.98 110.65 127.45 109.54 121.42 104.42 C 116.07 98.66 114.05 90.28 107.83 85.23 C 101.79 81.06 94.31 79.62 87.26 78.11 C 79.46 80.29 70.37 81.22 64.65 87.62 C 60.16 92.70 58.12 99.45 53.58 104.50 C 48.78 108.55 41.91 109.00 35.95 108.00 C 31.61 107.11 29.23 102.16 29.92 98.03 C 30.59 91.98 34.79 86.87 39.83 83.74 C 46.09 80.78 53.37 82.41 59.02 85.97 C 66.00 80.70 72.52 74.87 79.00 69.01 C 65.74 55.60 51.87 42.77 39.44 28.56 C 34.35 23.63 30.95 17.22 29.17 10.40 M 83.68 71.78 C 86.24 71.94 88.80 71.94 91.35 71.79 C 90.65 70.11 89.95 68.43 89.25 66.75 C 88.38 66.75 86.65 66.75 85.78 66.75 C 85.08 68.43 84.40 70.11 83.68 71.78 M 43.34 87.49 C 39.96 88.83 37.74 91.92 35.81 94.85 C 33.91 97.47 34.77 101.51 37.42 103.29 C 44.62 106.61 54.79 100.39 53.67 92.11 C 53.82 86.97 47.12 85.37 43.34 87.49 M 123.17 87.48 C 120.31 90.68 120.76 95.63 123.09 98.99 C 126.31 103.46 132.48 105.17 137.62 103.32 C 139.57 102.17 140.18 99.78 140.25 97.67 C 138.38 90.65 130.62 84.16 123.17 87.48 Z" />
<path fill="#2b5973" opacity="1.00" d=" M 108.22 41.21 C 119.71 30.86 130.97 20.21 143.23 10.75 C 141.79 19.81 135.39 26.87 129.23 33.20 C 118.05 44.40 106.88 55.60 95.66 66.75 C 93.12 64.42 90.58 62.07 88.06 59.71 C 94.20 52.93 101.32 47.19 108.22 41.21 Z" />
<path fill="#2b5973" opacity="1.00" d=" M 162.00 85.98 C 166.33 86.32 170.67 86.66 175.00 86.99 L 175.00 90.68 C 170.01 90.22 165.03 89.67 160.03 89.29 C 160.68 88.19 161.34 87.09 162.00 85.98 Z" />
<path fill="#2b5973" opacity="1.00" d=" M 0.00 87.59 C 4.51 87.29 9.03 87.03 13.54 86.74 C 13.71 87.83 13.89 88.93 14.06 90.02 C 9.37 90.35 4.68 90.66 0.00 91.06 L 0.00 87.59 Z" />
<path fill="#2b5973" opacity="1.00" d=" M 153.79 96.46 C 155.95 94.54 158.20 91.70 161.44 92.20 C 165.96 92.62 170.47 93.11 175.00 93.38 L 175.00 98.83 C 167.91 98.25 160.84 97.41 153.79 96.46 Z" />
<path fill="#2b5973" opacity="1.00" d=" M 0.00 93.93 C 5.30 93.56 10.59 92.82 15.90 92.84 C 18.25 93.70 19.81 95.82 21.65 97.41 C 14.41 97.46 7.22 98.46 0.00 98.85 L 0.00 93.93 Z" />
</g>
</svg>
