<svg width="32" height="30" viewBox="0 0 32 30" fill="none" xmlns="http://www.w3.org/2000/svg">
<rect y="0.389771" width="31.1594" height="29.2206" rx="11.3998" fill="#74C9ED"/>
<path d="M23.9208 6.95191C23.309 6.42822 22.5824 6.05595 21.7999 5.86524C21.0175 5.67452 20.2011 5.67072 19.4169 5.85414C17.8404 6.19935 16.4624 7.14989 15.5799 8.50108C14.7021 7.15427 13.3324 6.20426 11.7634 5.85414C10.9827 5.66663 10.1693 5.66164 9.38638 5.83957C8.60347 6.01751 7.87213 6.37357 7.24919 6.88009C5.6282 8.2959 4.73563 11.4353 5.75131 14.6157C5.86622 14.9666 6.00369 15.3093 6.16169 15.6417C6.20273 15.7186 6.24069 15.7976 6.27454 15.8776C8.91122 21.2536 15.0053 24.0852 15.2721 24.2186C15.3708 24.2676 15.4799 24.2922 15.5901 24.2904C15.7002 24.2911 15.809 24.2665 15.9082 24.2186C16.1647 24.1057 22.3203 21.2946 24.9365 15.8571L25.0186 15.6827C25.1807 15.3339 25.3212 14.9738 25.4392 14.6055C26.4036 11.5276 25.5213 8.38823 23.9208 6.95191ZM23.6028 15.0877C23.4591 15.4098 23.295 15.7217 23.1103 16.0213H19.7144C19.5454 16.0204 19.3793 15.9778 19.2307 15.8973C19.0822 15.8167 18.9558 15.7007 18.8629 15.5596L17.7857 13.9591L15.4978 18.5348C15.4255 18.6797 15.32 18.8055 15.1898 18.9017C15.0597 18.998 14.9085 19.0621 14.7489 19.0888H14.5847C14.449 19.0883 14.3147 19.0608 14.1896 19.008C14.0646 18.9551 13.9513 18.878 13.8563 18.7811L11.076 16.011H8.09047C7.90154 15.6783 7.73031 15.3358 7.57749 14.9851C7.41885 14.6547 7.28843 14.3115 7.18764 13.9591H11.5069C11.6419 13.9583 11.7758 13.9841 11.9008 14.0352C12.0258 14.0862 12.1395 14.1615 12.2353 14.2566L14.2872 16.3085L16.7289 11.425C16.8101 11.2633 16.9325 11.126 17.0839 11.0269C17.2352 10.9278 17.4101 10.8705 17.5907 10.8608C17.769 10.85 17.9471 10.886 18.1072 10.9651C18.2674 11.0443 18.4041 11.1639 18.5038 11.3122L20.2479 13.9386H24.0439C23.9322 14.3343 23.7845 14.7189 23.6028 15.0877Z" fill="#1A1A1A"/>
</svg>
